<svg xmlns="http://www.w3.org/2000/svg" viewBox="0 0 880 540" width="880" height="540">
  <defs>
    <marker id="fig52-ma" markerWidth="8" markerHeight="6" refX="8" refY="3" orient="auto">
      <polygon points="0 0, 8 3, 0 6" fill="#1a3a6e"/>
    </marker>
    <marker id="fig52-mg" markerWidth="8" markerHeight="6" refX="8" refY="3" orient="auto">
      <polygon points="0 0, 8 3, 0 6" fill="#888"/>
    </marker>
  </defs>

  <rect width="880" height="540" fill="#fff"/>

  <!-- Title -->
  <text x="440" y="20" text-anchor="middle" font-family="Courier New, monospace" font-size="13" font-weight="bold" fill="#000">Figure 5.2: GlmMoeDsaDecoderLayer &#x2014; Complete Internal Flow</text>

  <!-- ===== Decoder Layer Box ===== -->
  <rect x="25" y="35" width="830" height="345" fill="none" stroke="#1a3a6e" stroke-width="1.5" stroke-dasharray="4,3"/>
  <text x="37" y="55" font-family="Courier New, monospace" font-size="11" font-weight="bold" fill="#1a3a6e">Decoder Layer</text>

  <!-- ===== Input arrow ===== -->
  <line x1="440" y1="28" x2="440" y2="35" stroke="#1a3a6e" stroke-width="1.5"/>
  <text x="440" y="23" text-anchor="middle" font-family="Courier New, monospace" font-size="9" fill="#888">Input (from previous layer or embedding)</text>

  <!-- Input entry point inside box -->
  <line x1="25" y1="102" x2="46" y2="102" stroke="#1a3a6e" stroke-width="1.5"/>
  <line x1="440" y1="35" x2="440" y2="60" stroke="#1a3a6e" stroke-width="1.5"/>
  <line x1="440" y1="60" x2="25" y2="60" stroke="#1a3a6e" stroke-width="1.5"/>
  <line x1="25" y1="60" x2="25" y2="100" stroke="#1a3a6e" stroke-width="1.5" marker-end="url(#fig52-ma)"/>

  <!-- ===== Row 1: Attention Sub-block ===== -->
  <text x="37" y="78" font-family="Courier New, monospace" font-size="9.5" font-weight="bold" fill="#1a3a6e">Attention Sub-block</text>

  <!-- Branch point for residual -->
  <circle cx="37" cy="102" r="3" fill="#1a3a6e"/>

  <!-- RMSNorm 1 -->
  <rect x="48" y="85" width="82" height="34" fill="none" stroke="#1a3a6e" stroke-width="1.5"/>
  <text x="89" y="106" text-anchor="middle" font-family="Courier New, monospace" font-size="10" fill="#000">RMSNorm</text>

  <line x1="130" y1="102" x2="146" y2="102" stroke="#1a3a6e" stroke-width="1.5" marker-end="url(#fig52-ma)"/>

  <!-- DSA Indexer -->
  <rect x="148" y="85" width="105" height="34" fill="none" stroke="#1a3a6e" stroke-width="1.5"/>
  <text x="200" y="106" text-anchor="middle" font-family="Courier New, monospace" font-size="9.5" fill="#000">DSA Indexer</text>

  <line x1="253" y1="102" x2="270" y2="102" stroke="#1a3a6e" stroke-width="1.5" marker-end="url(#fig52-ma)"/>

  <!-- MLA Attn -->
  <rect x="272" y="85" width="135" height="34" fill="none" stroke="#1a3a6e" stroke-width="1.5"/>
  <text x="339" y="101" text-anchor="middle" font-family="Courier New, monospace" font-size="9.5" fill="#000">MLA Attn</text>
  <text x="339" y="114" text-anchor="middle" font-family="Courier New, monospace" font-size="7.5" fill="#888">FlashAttn</text>

  <line x1="407" y1="102" x2="424" y2="102" stroke="#1a3a6e" stroke-width="1.5" marker-end="url(#fig52-ma)"/>

  <!-- Add1 circle -->
  <circle cx="442" cy="102" r="12" fill="none" stroke="#1a3a6e" stroke-width="1.5"/>
  <text x="442" y="107" text-anchor="middle" font-family="Courier New, monospace" font-size="13" fill="#1a3a6e">+</text>

  <!-- Residual 1: bypass RMSNorm+DSA+MLA -->
  <path d="M 37 102 L 37 68 L 442 68 L 442 90" fill="none" stroke="#888" stroke-width="1.2" marker-end="url(#fig52-mg)"/>
  <text x="240" y="63" text-anchor="middle" font-family="Courier New, monospace" font-size="9" fill="#888">residual</text>

  <!-- ===== Flow: Row1 Add1 → Row2 Input ===== -->
  <path d="M 454 102 L 454 155 L 89 155 L 89 185" fill="none" stroke="#1a3a6e" stroke-width="1.5" marker-end="url(#fig52-ma)"/>

  <!-- ===== Row 2: MoE Sub-block ===== -->
  <text x="37" y="178" font-family="Courier New, monospace" font-size="9.5" font-weight="bold" fill="#1a3a6e">MoE Sub-block</text>

  <!-- Branch point for residual 2 -->
  <circle cx="37" cy="209" r="3" fill="#1a3a6e"/>

  <!-- RMSNorm 2 -->
  <rect x="48" y="192" width="82" height="34" fill="none" stroke="#1a3a6e" stroke-width="1.5"/>
  <text x="89" y="213" text-anchor="middle" font-family="Courier New, monospace" font-size="10" fill="#000">RMSNorm</text>

  <!-- Split line: RMSNorm output splits to Shared and Routed -->
  <line x1="130" y1="209" x2="148" y2="209" stroke="#1a3a6e" stroke-width="1.5"/>

  <!-- Shared Expert -->
  <rect x="148" y="190" width="100" height="28" fill="none" stroke="#1a3a6e" stroke-width="1.5"/>
  <text x="198" y="208" text-anchor="middle" font-family="Courier New, monospace" font-size="9" fill="#000">Shared Expert</text>

  <!-- Routed Experts -->
  <rect x="148" y="222" width="100" height="28" fill="none" stroke="#1a3a6e" stroke-width="1.5"/>
  <text x="198" y="240" text-anchor="middle" font-family="Courier New, monospace" font-size="9" fill="#000">Routed (256, k=8)</text>

  <!-- Split arrow from RMSNorm to both -->
  <line x1="130" y1="204" x2="146" y2="204" stroke="#1a3a6e" stroke-width="1.5"/>
  <line x1="130" y1="214" x2="146" y2="214" stroke="#1a3a6e" stroke-width="1.5"/>

  <!-- Both merge to Add2 -->
  <line x1="248" y1="204" x2="276" y2="204" stroke="#1a3a6e" stroke-width="1.5"/>
  <line x1="248" y1="236" x2="268" y2="236" stroke="#1a3a6e" stroke-width="1.5"/>
  <line x1="268" y1="236" x2="268" y2="222" stroke="#1a3a6e" stroke-width="1.5"/>

  <!-- Add2 circle -->
  <circle cx="298" cy="222" r="12" fill="none" stroke="#1a3a6e" stroke-width="1.5"/>
  <text x="298" y="227" text-anchor="middle" font-family="Courier New, monospace" font-size="13" fill="#1a3a6e">+</text>

  <!-- Residual 2: bypass RMSNorm+MoE -->
  <path d="M 37 209 L 37 265 L 298 265 L 298 234" fill="none" stroke="#888" stroke-width="1.2" marker-end="url(#fig52-mg)"/>
  <text x="167" y="260" text-anchor="middle" font-family="Courier New, monospace" font-size="9" fill="#888">residual</text>

  <!-- Add2 output → exit box -->
  <line x1="310" y1="222" x2="370" y2="222" stroke="#1a3a6e" stroke-width="1.5"/>
  <line x1="370" y1="222" x2="370" y2="285" stroke="#1a3a6e" stroke-width="1.5"/>
  <line x1="370" y1="285" x2="440" y2="285" stroke="#1a3a6e" stroke-width="1.5"/>
  <line x1="440" y1="285" x2="440" y2="382" stroke="#1a3a6e" stroke-width="1.5" marker-end="url(#fig52-ma)"/>

  <text x="440" y="398" text-anchor="middle" font-family="Courier New, monospace" font-size="10" fill="#000">Output (to next layer or MTP)</text>

  <!-- ===== Right-side annotations ===== -->
  <rect x="520" y="65" width="310" height="180" fill="none" stroke="#b8721a" stroke-width="1"/>
  <text x="530" y="83" font-family="Courier New, monospace" font-size="10" font-weight="bold" fill="#b8721a">Layer Configuration</text>

  <text x="530" y="101" font-family="Courier New, monospace" font-size="9" fill="#000">Attention:</text>
  <text x="540" y="115" font-family="Courier New, monospace" font-size="9" fill="#000">&#x2022; RMSNorm pre-norm</text>
  <text x="540" y="130" font-family="Courier New, monospace" font-size="9" fill="#000">&#x2022; DSA Indexer (32 heads, top-2048)</text>
  <text x="540" y="145" font-family="Courier New, monospace" font-size="9" fill="#000">&#x2022; MLA with LoRA Q/KV + RoPE</text>
  <text x="540" y="160" font-family="Courier New, monospace" font-size="9" fill="#000">&#x2022; FlashAttention kernel</text>

  <text x="530" y="180" font-family="Courier New, monospace" font-size="9" fill="#000">MoE (layers 4-78):</text>
  <text x="540" y="194" font-family="Courier New, monospace" font-size="9" fill="#000">&#x2022; 1 shared expert (always active)</text>
  <text x="540" y="209" font-family="Courier New, monospace" font-size="9" fill="#000">&#x2022; 256 routed experts (top-8)</text>
  <text x="540" y="224" font-family="Courier New, monospace" font-size="9" fill="#000">&#x2022; sigmoid gate + noaux_tc routing</text>
  <text x="540" y="239" font-family="Courier New, monospace" font-size="9" fill="#000">&#x2022; routed_scaling_factor = 2.5</text>

  <text x="530" y="262" font-family="Courier New, monospace" font-size="9" font-weight="bold" fill="#b8721a">Layer Distribution:</text>
  <text x="540" y="277" font-family="Courier New, monospace" font-size="9" fill="#1a3a6e">Layers 1-3: Dense MLP (not MoE)</text>
  <text x="540" y="292" font-family="Courier New, monospace" font-size="9" fill="#1a3a6e">Layers 4-78: MoE (256 + 1 experts)</text>
  <text x="540" y="307" font-family="Courier New, monospace" font-size="9" fill="#888">first_k_dense_replace = 3</text>

  <!-- ===== Legend ===== -->
  <rect x="10" y="420" width="300" height="70" fill="none" stroke="#000" stroke-width="1"/>
  <text x="22" y="438" font-family="Courier New, monospace" font-size="10" font-weight="bold" fill="#000">Legend</text>

  <line x1="22" y1="453" x2="52" y2="453" stroke="#1a3a6e" stroke-width="1.5"/>
  <text x="60" y="457" font-family="Courier New, monospace" font-size="9.5" fill="#000">Main data flow</text>

  <line x1="22" y1="470" x2="52" y2="470" stroke="#888" stroke-width="1.2"/>
  <text x="60" y="474" font-family="Courier New, monospace" font-size="9.5" fill="#000">Residual connection</text>

  <!-- Source -->
  <text x="440" y="520" text-anchor="middle" font-family="Courier New, monospace" font-size="8" fill="#888">Source: modeling_glm_moe_dsa.py:L594-L642</text>
</svg>
