<svg xmlns="http://www.w3.org/2000/svg" viewBox="0 0 1200 820" width="1200" height="820">
  <defs>
    <style>
      .fig-22-text { font-family: "Courier New", monospace; font-size: 13px; fill: #000; }
      .fig-22-text-sm { font-family: "Courier New", monospace; font-size: 11px; fill: #000; }
      .fig-22-text-xs { font-family: "Courier New", monospace; font-size: 9px; fill: #888; }
      .fig-22-text-hl { font-family: "Courier New", monospace; font-size: 13px; fill: #1a3a6e; font-weight: bold; }
      .fig-22-text-accent { font-family: "Courier New", monospace; font-size: 12px; fill: #b8721a; }
      .fig-22-box-mamba { fill: #1a3a6e; fill-opacity: 0.12; stroke: #1a3a6e; stroke-width: 1.2; }
      .fig-22-box-attn { fill: #b8721a; fill-opacity: 0.12; stroke: #b8721a; stroke-width: 1.2; }
      .fig-22-box-moe { fill: #4a7ab0; fill-opacity: 0.12; stroke: #4a7ab0; stroke-width: 1; }
      .fig-22-box-shared { fill: #4a7ab0; fill-opacity: 0.05; stroke: #4a7ab0; stroke-width: 1; stroke-dasharray: 3,3; }
      .fig-22-legend-box { fill: none; stroke: #888; stroke-width: 1; }
      .fig-22-line-gray { stroke: #888; stroke-width: 0.8; fill: none; stroke-dasharray: 4,4; }
      .fig-22-arrow { stroke: #1a3a6e; stroke-width: 1.5; fill: none; }
    </style>
  </defs>

  <!-- Title -->
  <text x="30" y="28" font-family="Courier New, monospace" font-size="16" font-weight="bold" fill="#000">Fig 2.2 — Hybrid Layer Pattern: 48 Mamba-2 + 12 Attention, Interleaved with 48 LatentMoE</text>
  <line x1="30" y1="36" x2="1050" y2="36" stroke="#1a3a6e" stroke-width="0.5"/>

  <!-- ===== Full 60-layer grid ===== -->
  <!-- 5 rows x 12 cols = 60 hybrid blocks, each block = mixer + moe pair -->

  <!-- Labels -->
  <text x="85" y="68" text-anchor="middle" class="fig-22-text-sm" font-weight="bold">Layer 0</text>
  <text x="160" y="68" text-anchor="middle" class="fig-22-text-sm" font-weight="bold">Layer 1</text>
  <text x="235" y="68" text-anchor="middle" class="fig-22-text-sm" font-weight="bold">Layer 2</text>
  <text x="310" y="68" text-anchor="middle" class="fig-22-text-sm" font-weight="bold">Layer 3</text>
  <text x="385" y="68" text-anchor="middle" class="fig-22-text-sm" font-weight="bold">Layer 4</text>
  <text x="460" y="68" text-anchor="middle" class="fig-22-text-sm" font-weight="bold">Layer 5</text>
  <text x="535" y="68" text-anchor="middle" class="fig-22-text-sm" font-weight="bold">Layer 6</text>
  <text x="610" y="68" text-anchor="middle" class="fig-22-text-sm" font-weight="bold">Layer 7</text>
  <text x="685" y="68" text-anchor="middle" class="fig-22-text-sm" font-weight="bold">Layer 8</text>
  <text x="760" y="68" text-anchor="middle" class="fig-22-text-sm" font-weight="bold">Layer 9</text>
  <text x="835" y="68" text-anchor="middle" class="fig-22-text-sm" font-weight="bold">Layer 10</text>
  <text x="910" y="68" text-anchor="middle" class="fig-22-text-sm" font-weight="bold">Layer 11</text>
  <text x="985" y="68" text-anchor="middle" class="fig-22-text-sm" font-weight="bold">Layer 12</text>
  <text x="1060" y="68" text-anchor="middle" class="fig-22-text-sm" font-weight="bold">Layer 13</text>
  <text x="1135" y="68" text-anchor="middle" class="fig-22-text-sm" font-weight="bold">Layer 14</text>

  <!-- Row 1: Layers 0-14 (indices 0,2,4,6,7,9,11,13,14,16,18,20,21,23,25) -->
  <!-- Actually, the layers_block_type indices are: -->
  <!-- Mixer blocks: 0,2,4,6,7,9,11,13,14,16,18,20,21,23,25,... -->
  <!-- Each pair (mixer + moe) occupies 2 slots. But here I show only mixer blocks for clarity -->

  <!-- Row labels -->
  <text x="30" y="100" class="fig-22-text-xs" text-anchor="middle">R1</text>

  <!-- Row 1: Mixers (positions from layers_block_type) -->
  <!-- Layer 0 (mixer=mamba, idx=0), Layer 1 (mixer=mamba, idx=2), Layer 2 (mixer=mamba, idx=4), Layer 3 (mixer=mamba, idx=6) -->
  <!-- Layer 4 (mixer=attn, idx=7), Layer 5 (mixer=mamba, idx=9), Layer 6 (mixer=mamba, idx=11), ... -->

  <!-- Layer 0: Mamba (idx=0) -->
  <rect x="55" y="80" width="60" height="24" class="fig-22-box-mamba"/>
  <text x="85" y="96" text-anchor="middle" font-family="Courier New, monospace" font-size="9" fill="#1a3a6e">Mamba</text>
  <!-- MoE (idx=1) -->
  <rect x="55" y="106" width="60" height="16" class="fig-22-box-moe"/>
  <text x="85" y="118" text-anchor="middle" font-family="Courier New, monospace" font-size="7" fill="#4a7ab0">MoE</text>

  <!-- Layer 1: Mamba (idx=2) -->
  <rect x="130" y="80" width="60" height="24" class="fig-22-box-mamba"/>
  <text x="160" y="96" text-anchor="middle" font-family="Courier New, monospace" font-size="9" fill="#1a3a6e">Mamba</text>
  <rect x="130" y="106" width="60" height="16" class="fig-22-box-moe"/>
  <text x="160" y="118" text-anchor="middle" font-family="Courier New, monospace" font-size="7" fill="#4a7ab0">MoE</text>

  <!-- Layer 2: Mamba (idx=4) -->
  <rect x="205" y="80" width="60" height="24" class="fig-22-box-mamba"/>
  <text x="235" y="96" text-anchor="middle" font-family="Courier New, monospace" font-size="9" fill="#1a3a6e">Mamba</text>
  <rect x="205" y="106" width="60" height="16" class="fig-22-box-moe"/>
  <text x="235" y="118" text-anchor="middle" font-family="Courier New, monospace" font-size="7" fill="#4a7ab0">MoE</text>

  <!-- Layer 3: Mamba (idx=6) -->
  <rect x="280" y="80" width="60" height="24" class="fig-22-box-mamba"/>
  <text x="310" y="96" text-anchor="middle" font-family="Courier New, monospace" font-size="9" fill="#1a3a6e">Mamba</text>
  <rect x="280" y="106" width="60" height="16" class="fig-22-box-moe"/>
  <text x="310" y="118" text-anchor="middle" font-family="Courier New, monospace" font-size="7" fill="#4a7ab0">MoE</text>

  <!-- Layer 4: Attention (idx=7) -->
  <rect x="355" y="80" width="60" height="24" class="fig-22-box-attn"/>
  <text x="385" y="96" text-anchor="middle" font-family="Courier New, monospace" font-size="9" fill="#b8721a">Attn</text>
  <rect x="355" y="106" width="60" height="16" class="fig-22-box-moe"/>
  <text x="385" y="118" text-anchor="middle" font-family="Courier New, monospace" font-size="7" fill="#4a7ab0">MoE</text>

  <!-- Layer 5: Mamba (idx=9) -->
  <rect x="430" y="80" width="60" height="24" class="fig-22-box-mamba"/>
  <text x="460" y="96" text-anchor="middle" font-family="Courier New, monospace" font-size="9" fill="#1a3a6e">Mamba</text>
  <rect x="430" y="106" width="60" height="16" class="fig-22-box-moe"/>
  <text x="460" y="118" text-anchor="middle" font-family="Courier New, monospace" font-size="7" fill="#4a7ab0">MoE</text>

  <!-- Layer 6: Mamba (idx=11) -->
  <rect x="505" y="80" width="60" height="24" class="fig-22-box-mamba"/>
  <text x="535" y="96" text-anchor="middle" font-family="Courier New, monospace" font-size="9" fill="#1a3a6e">Mamba</text>
  <rect x="505" y="106" width="60" height="16" class="fig-22-box-moe"/>
  <text x="535" y="118" text-anchor="middle" font-family="Courier New, monospace" font-size="7" fill="#4a7ab0">MoE</text>

  <!-- Layer 7: Mamba (idx=13) -->
  <rect x="580" y="80" width="60" height="24" class="fig-22-box-mamba"/>
  <text x="610" y="96" text-anchor="middle" font-family="Courier New, monospace" font-size="9" fill="#1a3a6e">Mamba</text>
  <rect x="580" y="106" width="60" height="16" class="fig-22-box-moe"/>
  <text x="610" y="118" text-anchor="middle" font-family="Courier New, monospace" font-size="7" fill="#4a7ab0">MoE</text>

  <!-- Layer 8: Attention (idx=14) -->
  <rect x="655" y="80" width="60" height="24" class="fig-22-box-attn"/>
  <text x="685" y="96" text-anchor="middle" font-family="Courier New, monospace" font-size="9" fill="#b8721a">Attn</text>
  <rect x="655" y="106" width="60" height="16" class="fig-22-box-moe"/>
  <text x="685" y="118" text-anchor="middle" font-family="Courier New, monospace" font-size="7" fill="#4a7ab0">MoE</text>

  <!-- Layer 9: Mamba (idx=16) -->
  <rect x="730" y="80" width="60" height="24" class="fig-22-box-mamba"/>
  <text x="760" y="96" text-anchor="middle" font-family="Courier New, monospace" font-size="9" fill="#1a3a6e">Mamba</text>
  <rect x="730" y="106" width="60" height="16" class="fig-22-box-moe"/>
  <text x="760" y="118" text-anchor="middle" font-family="Courier New, monospace" font-size="7" fill="#4a7ab0">MoE</text>

  <!-- Layer 10: Mamba (idx=18) -->
  <rect x="805" y="80" width="60" height="24" class="fig-22-box-mamba"/>
  <text x="835" y="96" text-anchor="middle" font-family="Courier New, monospace" font-size="9" fill="#1a3a6e">Mamba</text>
  <rect x="805" y="106" width="60" height="16" class="fig-22-box-moe"/>
  <text x="835" y="118" text-anchor="middle" font-family="Courier New, monospace" font-size="7" fill="#4a7ab0">MoE</text>

  <!-- Layer 11: Mamba (idx=20) -->
  <rect x="880" y="80" width="60" height="24" class="fig-22-box-mamba"/>
  <text x="910" y="96" text-anchor="middle" font-family="Courier New, monospace" font-size="9" fill="#1a3a6e">Mamba</text>
  <rect x="880" y="106" width="60" height="16" class="fig-22-box-moe"/>
  <text x="910" y="118" text-anchor="middle" font-family="Courier New, monospace" font-size="7" fill="#4a7ab0">MoE</text>

  <!-- Layer 12: Attention (idx=21) -->
  <rect x="955" y="80" width="60" height="24" class="fig-22-box-attn"/>
  <text x="985" y="96" text-anchor="middle" font-family="Courier New, monospace" font-size="9" fill="#b8721a">Attn</text>
  <rect x="955" y="106" width="60" height="16" class="fig-22-box-moe"/>
  <text x="985" y="118" text-anchor="middle" font-family="Courier New, monospace" font-size="7" fill="#4a7ab0">MoE</text>

  <!-- Layer 13: Mamba (idx=23) -->
  <rect x="1030" y="80" width="60" height="24" class="fig-22-box-mamba"/>
  <text x="1060" y="96" text-anchor="middle" font-family="Courier New, monospace" font-size="9" fill="#1a3a6e">Mamba</text>
  <rect x="1030" y="106" width="60" height="16" class="fig-22-box-moe"/>
  <text x="1060" y="118" text-anchor="middle" font-family="Courier New, monospace" font-size="7" fill="#4a7ab0">MoE</text>

  <!-- Layer 14: Mamba (idx=25) -->
  <rect x="1105" y="80" width="60" height="24" class="fig-22-box-mamba"/>
  <text x="1135" y="96" text-anchor="middle" font-family="Courier New, monospace" font-size="9" fill="#1a3a6e">Mamba</text>
  <rect x="1105" y="106" width="60" height="16" class="fig-22-box-moe"/>
  <text x="1135" y="118" text-anchor="middle" font-family="Courier New, monospace" font-size="7" fill="#4a7ab0">MoE</text>

  <!-- Row 2: Layers 15-29 -->
  <text x="30" y="148" class="fig-22-text-xs" text-anchor="middle">R2</text>

  <!-- Layer 15: Mamba (idx=27), Layer 16: Mamba (idx=30), Layer 17: Mamba (idx=32), Layer 18: Mamba (idx=34) -->
  <!-- Layer 19: Attn (idx=35), Layer 20: Mamba (idx=37), Layer 21: Mamba (idx=39), ... -->

  <!-- Layer 15: Mamba (idx=27) -->
  <rect x="55" y="130" width="60" height="24" class="fig-22-box-mamba"/>
  <text x="85" y="146" text-anchor="middle" font-family="Courier New, monospace" font-size="9" fill="#1a3a6e">Mamba</text>
  <rect x="55" y="156" width="60" height="16" class="fig-22-box-moe"/>
  <text x="85" y="168" text-anchor="middle" font-family="Courier New, monospace" font-size="7" fill="#4a7ab0">MoE</text>

  <!-- Layer 16: Mamba (idx=30) -->
  <rect x="130" y="130" width="60" height="24" class="fig-22-box-mamba"/>
  <text x="160" y="146" text-anchor="middle" font-family="Courier New, monospace" font-size="9" fill="#1a3a6e">Mamba</text>
  <rect x="130" y="156" width="60" height="16" class="fig-22-box-moe"/>
  <text x="160" y="168" text-anchor="middle" font-family="Courier New, monospace" font-size="7" fill="#4a7ab0">MoE</text>

  <!-- Layer 17: Mamba (idx=32) -->
  <rect x="205" y="130" width="60" height="24" class="fig-22-box-mamba"/>
  <text x="235" y="146" text-anchor="middle" font-family="Courier New, monospace" font-size="9" fill="#1a3a6e">Mamba</text>
  <rect x="205" y="156" width="60" height="16" class="fig-22-box-moe"/>
  <text x="235" y="168" text-anchor="middle" font-family="Courier New, monospace" font-size="7" fill="#4a7ab0">MoE</text>

  <!-- Layer 18: Mamba (idx=34) -->
  <rect x="280" y="130" width="60" height="24" class="fig-22-box-mamba"/>
  <text x="310" y="146" text-anchor="middle" font-family="Courier New, monospace" font-size="9" fill="#1a3a6e">Mamba</text>
  <rect x="280" y="156" width="60" height="16" class="fig-22-box-moe"/>
  <text x="310" y="168" text-anchor="middle" font-family="Courier New, monospace" font-size="7" fill="#4a7ab0">MoE</text>

  <!-- Layer 19: Attention (idx=35) -->
  <rect x="355" y="130" width="60" height="24" class="fig-22-box-attn"/>
  <text x="385" y="146" text-anchor="middle" font-family="Courier New, monospace" font-size="9" fill="#b8721a">Attn</text>
  <rect x="355" y="156" width="60" height="16" class="fig-22-box-moe"/>
  <text x="385" y="168" text-anchor="middle" font-family="Courier New, monospace" font-size="7" fill="#4a7ab0">MoE</text>

  <!-- Layer 20: Mamba (idx=37) -->
  <rect x="430" y="130" width="60" height="24" class="fig-22-box-mamba"/>
  <text x="460" y="146" text-anchor="middle" font-family="Courier New, monospace" font-size="9" fill="#1a3a6e">Mamba</text>
  <rect x="430" y="156" width="60" height="16" class="fig-22-box-moe"/>
  <text x="460" y="168" text-anchor="middle" font-family="Courier New, monospace" font-size="7" fill="#4a7ab0">MoE</text>

  <!-- Layer 21: Mamba (idx=39) -->
  <rect x="505" y="130" width="60" height="24" class="fig-22-box-mamba"/>
  <text x="535" y="146" text-anchor="middle" font-family="Courier New, monospace" font-size="9" fill="#1a3a6e">Mamba</text>
  <rect x="505" y="156" width="60" height="16" class="fig-22-box-moe"/>
  <text x="535" y="168" text-anchor="middle" font-family="Courier New, monospace" font-size="7" fill="#4a7ab0">MoE</text>

  <!-- Layer 22: Mamba (idx=41) -->
  <rect x="580" y="130" width="60" height="24" class="fig-22-box-mamba"/>
  <text x="610" y="146" text-anchor="middle" font-family="Courier New, monospace" font-size="9" fill="#1a3a6e">Mamba</text>
  <rect x="580" y="156" width="60" height="16" class="fig-22-box-moe"/>
  <text x="610" y="168" text-anchor="middle" font-family="Courier New, monospace" font-size="7" fill="#4a7ab0">MoE</text>

  <!-- Layer 23: Attention (idx=42) -->
  <rect x="655" y="130" width="60" height="24" class="fig-22-box-attn"/>
  <text x="685" y="146" text-anchor="middle" font-family="Courier New, monospace" font-size="9" fill="#b8721a">Attn</text>
  <rect x="655" y="156" width="60" height="16" class="fig-22-box-moe"/>
  <text x="685" y="168" text-anchor="middle" font-family="Courier New, monospace" font-size="7" fill="#4a7ab0">MoE</text>

  <!-- Layer 24: Mamba (idx=44) -->
  <rect x="730" y="130" width="60" height="24" class="fig-22-box-mamba"/>
  <text x="760" y="146" text-anchor="middle" font-family="Courier New, monospace" font-size="9" fill="#1a3a6e">Mamba</text>
  <rect x="730" y="156" width="60" height="16" class="fig-22-box-moe"/>
  <text x="760" y="168" text-anchor="middle" font-family="Courier New, monospace" font-size="7" fill="#4a7ab0">MoE</text>

  <!-- Layer 25: Mamba (idx=46) -->
  <rect x="805" y="130" width="60" height="24" class="fig-22-box-mamba"/>
  <text x="835" y="146" text-anchor="middle" font-family="Courier New, monospace" font-size="9" fill="#1a3a6e">Mamba</text>
  <rect x="805" y="156" width="60" height="16" class="fig-22-box-moe"/>
  <text x="835" y="168" text-anchor="middle" font-family="Courier New, monospace" font-size="7" fill="#4a7ab0">MoE</text>

  <!-- Layer 26: Mamba (idx=48) -->
  <rect x="880" y="130" width="60" height="24" class="fig-22-box-mamba"/>
  <text x="910" y="146" text-anchor="middle" font-family="Courier New, monospace" font-size="9" fill="#1a3a6e">Mamba</text>
  <rect x="880" y="156" width="60" height="16" class="fig-22-box-moe"/>
  <text x="910" y="168" text-anchor="middle" font-family="Courier New, monospace" font-size="7" fill="#4a7ab0">MoE</text>

  <!-- Layer 27: Attention (idx=49) -->
  <rect x="955" y="130" width="60" height="24" class="fig-22-box-attn"/>
  <text x="985" y="146" text-anchor="middle" font-family="Courier New, monospace" font-size="9" fill="#b8721a">Attn</text>
  <rect x="955" y="156" width="60" height="16" class="fig-22-box-moe"/>
  <text x="985" y="168" text-anchor="middle" font-family="Courier New, monospace" font-size="7" fill="#4a7ab0">MoE</text>

  <!-- Layer 28: Mamba (idx=51) -->
  <rect x="1030" y="130" width="60" height="24" class="fig-22-box-mamba"/>
  <text x="1060" y="146" text-anchor="middle" font-family="Courier New, monospace" font-size="9" fill="#1a3a6e">Mamba</text>
  <rect x="1030" y="156" width="60" height="16" class="fig-22-box-moe"/>
  <text x="1060" y="168" text-anchor="middle" font-family="Courier New, monospace" font-size="7" fill="#4a7ab0">MoE</text>

  <!-- Layer 29: Mamba (idx=53) -->
  <rect x="1105" y="130" width="60" height="24" class="fig-22-box-mamba"/>
  <text x="1135" y="146" text-anchor="middle" font-family="Courier New, monospace" font-size="9" fill="#1a3a6e">Mamba</text>
  <rect x="1105" y="156" width="60" height="16" class="fig-22-box-moe"/>
  <text x="1135" y="168" text-anchor="middle" font-family="Courier New, monospace" font-size="7" fill="#4a7ab0">MoE</text>

  <!-- Row 3: Layers 30-44 -->
  <text x="30" y="200" class="fig-22-text-xs" text-anchor="middle">R3</text>

  <!-- Layer 30: Mamba (idx=55) -->
  <rect x="55" y="180" width="60" height="24" class="fig-22-box-mamba"/>
  <text x="85" y="196" text-anchor="middle" font-family="Courier New, monospace" font-size="9" fill="#1a3a6e">Mamba</text>
  <rect x="55" y="206" width="60" height="16" class="fig-22-box-moe"/>
  <text x="85" y="218" text-anchor="middle" font-family="Courier New, monospace" font-size="7" fill="#4a7ab0">MoE</text>

  <!-- Layer 31: Mamba (idx=58) -->
  <rect x="130" y="180" width="60" height="24" class="fig-22-box-mamba"/>
  <text x="160" y="196" text-anchor="middle" font-family="Courier New, monospace" font-size="9" fill="#1a3a6e">Mamba</text>
  <rect x="130" y="206" width="60" height="16" class="fig-22-box-moe"/>
  <text x="160" y="218" text-anchor="middle" font-family="Courier New, monospace" font-size="7" fill="#4a7ab0">MoE</text>

  <!-- Layer 32: Mamba (idx=60) -->
  <rect x="205" y="180" width="60" height="24" class="fig-22-box-mamba"/>
  <text x="235" y="196" text-anchor="middle" font-family="Courier New, monospace" font-size="9" fill="#1a3a6e">Mamba</text>
  <rect x="205" y="206" width="60" height="16" class="fig-22-box-moe"/>
  <text x="235" y="218" text-anchor="middle" font-family="Courier New, monospace" font-size="7" fill="#4a7ab0">MoE</text>

  <!-- Layer 33: Mamba (idx=62) -->
  <rect x="280" y="180" width="60" height="24" class="fig-22-box-mamba"/>
  <text x="310" y="196" text-anchor="middle" font-family="Courier New, monospace" font-size="9" fill="#1a3a6e">Mamba</text>
  <rect x="280" y="206" width="60" height="16" class="fig-22-box-moe"/>
  <text x="310" y="218" text-anchor="middle" font-family="Courier New, monospace" font-size="7" fill="#4a7ab0">MoE</text>

  <!-- Layer 34: Attention (idx=63) -->
  <rect x="355" y="180" width="60" height="24" class="fig-22-box-attn"/>
  <text x="385" y="196" text-anchor="middle" font-family="Courier New, monospace" font-size="9" fill="#b8721a">Attn</text>
  <rect x="355" y="206" width="60" height="16" class="fig-22-box-moe"/>
  <text x="385" y="218" text-anchor="middle" font-family="Courier New, monospace" font-size="7" fill="#4a7ab0">MoE</text>

  <!-- Layer 35: Mamba (idx=65) -->
  <rect x="430" y="180" width="60" height="24" class="fig-22-box-mamba"/>
  <text x="460" y="196" text-anchor="middle" font-family="Courier New, monospace" font-size="9" fill="#1a3a6e">Mamba</text>
  <rect x="430" y="206" width="60" height="16" class="fig-22-box-moe"/>
  <text x="460" y="218" text-anchor="middle" font-family="Courier New, monospace" font-size="7" fill="#4a7ab0">MoE</text>

  <!-- Layer 36: Mamba (idx=67) -->
  <rect x="505" y="180" width="60" height="24" class="fig-22-box-mamba"/>
  <text x="535" y="196" text-anchor="middle" font-family="Courier New, monospace" font-size="9" fill="#1a3a6e">Mamba</text>
  <rect x="505" y="206" width="60" height="16" class="fig-22-box-moe"/>
  <text x="535" y="218" text-anchor="middle" font-family="Courier New, monospace" font-size="7" fill="#4a7ab0">MoE</text>

  <!-- Layer 37: Mamba (idx=69) -->
  <rect x="580" y="180" width="60" height="24" class="fig-22-box-mamba"/>
  <text x="610" y="196" text-anchor="middle" font-family="Courier New, monospace" font-size="9" fill="#1a3a6e">Mamba</text>
  <rect x="580" y="206" width="60" height="16" class="fig-22-box-moe"/>
  <text x="610" y="218" text-anchor="middle" font-family="Courier New, monospace" font-size="7" fill="#4a7ab0">MoE</text>

  <!-- Layer 38: Attention (idx=70) -->
  <rect x="655" y="180" width="60" height="24" class="fig-22-box-attn"/>
  <text x="685" y="196" text-anchor="middle" font-family="Courier New, monospace" font-size="9" fill="#b8721a">Attn</text>
  <rect x="655" y="206" width="60" height="16" class="fig-22-box-moe"/>
  <text x="685" y="218" text-anchor="middle" font-family="Courier New, monospace" font-size="7" fill="#4a7ab0">MoE</text>

  <!-- Layer 39: Mamba (idx=72) -->
  <rect x="730" y="180" width="60" height="24" class="fig-22-box-mamba"/>
  <text x="760" y="196" text-anchor="middle" font-family="Courier New, monospace" font-size="9" fill="#1a3a6e">Mamba</text>
  <rect x="730" y="206" width="60" height="16" class="fig-22-box-moe"/>
  <text x="760" y="218" text-anchor="middle" font-family="Courier New, monospace" font-size="7" fill="#4a7ab0">MoE</text>

  <!-- Layer 40: Mamba (idx=74) -->
  <rect x="805" y="180" width="60" height="24" class="fig-22-box-mamba"/>
  <text x="835" y="196" text-anchor="middle" font-family="Courier New, monospace" font-size="9" fill="#1a3a6e">Mamba</text>
  <rect x="805" y="206" width="60" height="16" class="fig-22-box-moe"/>
  <text x="835" y="218" text-anchor="middle" font-family="Courier New, monospace" font-size="7" fill="#4a7ab0">MoE</text>

  <!-- Layer 41: Mamba (idx=76) -->
  <rect x="880" y="180" width="60" height="24" class="fig-22-box-mamba"/>
  <text x="910" y="196" text-anchor="middle" font-family="Courier New, monospace" font-size="9" fill="#1a3a6e">Mamba</text>
  <rect x="880" y="206" width="60" height="16" class="fig-22-box-moe"/>
  <text x="910" y="218" text-anchor="middle" font-family="Courier New, monospace" font-size="7" fill="#4a7ab0">MoE</text>

  <!-- Layer 42: Attention (idx=77) -->
  <rect x="955" y="180" width="60" height="24" class="fig-22-box-attn"/>
  <text x="985" y="196" text-anchor="middle" font-family="Courier New, monospace" font-size="9" fill="#b8721a">Attn</text>
  <rect x="955" y="206" width="60" height="16" class="fig-22-box-moe"/>
  <text x="985" y="218" text-anchor="middle" font-family="Courier New, monospace" font-size="7" fill="#4a7ab0">MoE</text>

  <!-- Layer 43: Mamba (idx=79) -->
  <rect x="1030" y="180" width="60" height="24" class="fig-22-box-mamba"/>
  <text x="1060" y="196" text-anchor="middle" font-family="Courier New, monospace" font-size="9" fill="#1a3a6e">Mamba</text>
  <rect x="1030" y="206" width="60" height="16" class="fig-22-box-moe"/>
  <text x="1060" y="218" text-anchor="middle" font-family="Courier New, monospace" font-size="7" fill="#4a7ab0">MoE</text>

  <!-- Layer 44: Mamba (idx=81) -->
  <rect x="1105" y="180" width="60" height="24" class="fig-22-box-mamba"/>
  <text x="1135" y="196" text-anchor="middle" font-family="Courier New, monospace" font-size="9" fill="#1a3a6e">Mamba</text>
  <rect x="1105" y="206" width="60" height="16" class="fig-22-box-moe"/>
  <text x="1135" y="218" text-anchor="middle" font-family="Courier New, monospace" font-size="7" fill="#4a7ab0">MoE</text>

  <!-- Row 4: Layers 45-59 -->
  <text x="30" y="250" class="fig-22-text-xs" text-anchor="middle">R4</text>

  <!-- Layer 45: Mamba (idx=83) -->
  <rect x="55" y="230" width="60" height="24" class="fig-22-box-mamba"/>
  <text x="85" y="246" text-anchor="middle" font-family="Courier New, monospace" font-size="9" fill="#1a3a6e">Mamba</text>
  <rect x="55" y="256" width="60" height="16" class="fig-22-box-moe"/>
  <text x="85" y="268" text-anchor="middle" font-family="Courier New, monospace" font-size="7" fill="#4a7ab0">MoE</text>

  <!-- Layer 46: Attention (idx=84) -->
  <rect x="130" y="230" width="60" height="24" class="fig-22-box-attn"/>
  <text x="160" y="246" text-anchor="middle" font-family="Courier New, monospace" font-size="9" fill="#b8721a">Attn</text>
  <rect x="130" y="256" width="60" height="16" class="fig-22-box-moe"/>
  <text x="160" y="268" text-anchor="middle" font-family="Courier New, monospace" font-size="7" fill="#4a7ab0">MoE</text>

  <!-- Layer 47: Mamba (idx=86) -->
  <rect x="205" y="230" width="60" height="24" class="fig-22-box-mamba"/>
  <text x="235" y="246" text-anchor="middle" font-family="Courier New, monospace" font-size="9" fill="#1a3a6e">Mamba</text>
  <rect x="205" y="256" width="60" height="16" class="fig-22-box-moe"/>
  <text x="235" y="268" text-anchor="middle" font-family="Courier New, monospace" font-size="7" fill="#4a7ab0">MoE</text>

  <!-- Layer 48: Mamba (idx=88) -->
  <rect x="280" y="230" width="60" height="24" class="fig-22-box-mamba"/>
  <text x="310" y="246" text-anchor="middle" font-family="Courier New, monospace" font-size="9" fill="#1a3a6e">Mamba</text>
  <rect x="280" y="256" width="60" height="16" class="fig-22-box-moe"/>
  <text x="310" y="268" text-anchor="middle" font-family="Courier New, monospace" font-size="7" fill="#4a7ab0">MoE</text>

  <!-- Layer 49: Mamba (idx=92) -->
  <rect x="355" y="230" width="60" height="24" class="fig-22-box-mamba"/>
  <text x="385" y="246" text-anchor="middle" font-family="Courier New, monospace" font-size="9" fill="#1a3a6e">Mamba</text>
  <rect x="355" y="256" width="60" height="16" class="fig-22-box-moe"/>
  <text x="385" y="268" text-anchor="middle" font-family="Courier New, monospace" font-size="7" fill="#4a7ab0">MoE</text>

  <!-- Layer 50: Mamba (idx=94) -->
  <rect x="430" y="230" width="60" height="24" class="fig-22-box-mamba"/>
  <text x="460" y="246" text-anchor="middle" font-family="Courier New, monospace" font-size="9" fill="#1a3a6e">Mamba</text>
  <rect x="430" y="256" width="60" height="16" class="fig-22-box-moe"/>
  <text x="460" y="268" text-anchor="middle" font-family="Courier New, monospace" font-size="7" fill="#4a7ab0">MoE</text>

  <!-- Layer 51: Attention (idx=97) -->
  <rect x="505" y="230" width="60" height="24" class="fig-22-box-attn"/>
  <text x="535" y="246" text-anchor="middle" font-family="Courier New, monospace" font-size="9" fill="#b8721a">Attn</text>
  <rect x="505" y="256" width="60" height="16" class="fig-22-box-moe"/>
  <text x="535" y="268" text-anchor="middle" font-family="Courier New, monospace" font-size="7" fill="#4a7ab0">MoE</text>

  <!-- Layer 52: Mamba (idx=99) -->
  <rect x="580" y="230" width="60" height="24" class="fig-22-box-mamba"/>
  <text x="610" y="246" text-anchor="middle" font-family="Courier New, monospace" font-size="9" fill="#1a3a6e">Mamba</text>
  <rect x="580" y="256" width="60" height="16" class="fig-22-box-moe"/>
  <text x="610" y="268" text-anchor="middle" font-family="Courier New, monospace" font-size="7" fill="#4a7ab0">MoE</text>

  <!-- Layer 53: Mamba (idx=103) -->
  <rect x="655" y="230" width="60" height="24" class="fig-22-box-mamba"/>
  <text x="685" y="246" text-anchor="middle" font-family="Courier New, monospace" font-size="9" fill="#1a3a6e">Mamba</text>
  <rect x="655" y="256" width="60" height="16" class="fig-22-box-moe"/>
  <text x="685" y="268" text-anchor="middle" font-family="Courier New, monospace" font-size="7" fill="#4a7ab0">MoE</text>

  <!-- Layer 54: Mamba (idx=105) -->
  <rect x="730" y="230" width="60" height="24" class="fig-22-box-mamba"/>
  <text x="760" y="246" text-anchor="middle" font-family="Courier New, monospace" font-size="9" fill="#1a3a6e">Mamba</text>
  <rect x="730" y="256" width="60" height="16" class="fig-22-box-moe"/>
  <text x="760" y="268" text-anchor="middle" font-family="Courier New, monospace" font-size="7" fill="#4a7ab0">MoE</text>

  <!-- Layer 55: Attention (idx=109) -->
  <rect x="805" y="230" width="60" height="24" class="fig-22-box-attn"/>
  <text x="835" y="246" text-anchor="middle" font-family="Courier New, monospace" font-size="9" fill="#b8721a">Attn</text>
  <rect x="805" y="256" width="60" height="16" class="fig-22-box-moe"/>
  <text x="835" y="268" text-anchor="middle" font-family="Courier New, monospace" font-size="7" fill="#4a7ab0">MoE</text>

  <!-- Layer 56: Mamba (idx=111) -->
  <rect x="880" y="230" width="60" height="24" class="fig-22-box-mamba"/>
  <text x="910" y="246" text-anchor="middle" font-family="Courier New, monospace" font-size="9" fill="#1a3a6e">Mamba</text>
  <rect x="880" y="256" width="60" height="16" class="fig-22-box-moe"/>
  <text x="910" y="268" text-anchor="middle" font-family="Courier New, monospace" font-size="7" fill="#4a7ab0">MoE</text>

  <!-- Layer 57: Attention (idx=115) -->
  <rect x="955" y="230" width="60" height="24" class="fig-22-box-attn"/>
  <text x="985" y="246" text-anchor="middle" font-family="Courier New, monospace" font-size="9" fill="#b8721a">Attn</text>
  <rect x="955" y="256" width="60" height="16" class="fig-22-box-moe"/>
  <text x="985" y="268" text-anchor="middle" font-family="Courier New, monospace" font-size="7" fill="#4a7ab0">MoE</text>

  <!-- Layer 58: Mamba (idx=117) -->
  <rect x="1030" y="230" width="60" height="24" class="fig-22-box-mamba"/>
  <text x="1060" y="246" text-anchor="middle" font-family="Courier New, monospace" font-size="9" fill="#1a3a6e">Mamba</text>
  <rect x="1030" y="256" width="60" height="16" class="fig-22-box-moe"/>
  <text x="1060" y="268" text-anchor="middle" font-family="Courier New, monospace" font-size="7" fill="#4a7ab0">MoE</text>

  <!-- Layer 59: Attention (idx=121) -->
  <rect x="1105" y="230" width="60" height="24" class="fig-22-box-attn"/>
  <text x="1135" y="246" text-anchor="middle" font-family="Courier New, monospace" font-size="9" fill="#b8721a">Attn</text>
  <rect x="1105" y="256" width="60" height="16" class="fig-22-box-moe"/>
  <text x="1135" y="268" text-anchor="middle" font-family="Courier New, monospace" font-size="7" fill="#4a7ab0">MoE</text>

  <!-- ===== Summary Statistics ===== -->
  <line x1="30" y1="310" x2="1170" y2="310" stroke="#1a3a6e" stroke-width="1"/>

  <!-- Stats columns -->
  <rect x="60" y="330" width="320" height="170" rx="0" ry="0" stroke="#1a3a6e" stroke-width="1.5" fill="#1a3a6e" fill-opacity="0.04"/>
  <text x="220" y="355" text-anchor="middle" class="fig-22-text-hl">Mamba-2 Mixer (48 layers)</text>
  <text x="80" y="380" class="fig-22-text-sm">Indices: 0,2,4,6,9,11,13,16,18,20,23,25,27,</text>
  <text x="80" y="398" class="fig-22-text-sm">         30,32,34,37,39,41,44,46,48,51,53,55,</text>
  <text x="80" y="416" class="fig-22-text-sm">         58,60,62,65,67,69,72,74,76,79,81,83,</text>
  <text x="80" y="434" class="fig-22-text-sm">         86,88,92,94,99,103,105,111,117</text>
  <text x="80" y="458" class="fig-22-text-sm">Parameters:</text>
  <text x="80" y="476" class="fig-22-text-xs">  heads=256  head_dim=64  ssm_state=128</text>
  <text x="80" y="492" class="fig-22-text-xs">  n_groups=8  chunk_size=128  conv_k=4  expand=2</text>

  <rect x="420" y="330" width="320" height="170" rx="0" ry="0" stroke="#b8721a" stroke-width="1.5" fill="#b8721a" fill-opacity="0.04"/>
  <text x="580" y="355" text-anchor="middle" class="fig-22-text-accent">Attention Mixer (12 layers)</text>
  <text x="440" y="380" class="fig-22-text-sm">Indices: 7,14,21,35,42,49,63,70,77,</text>
  <text x="440" y="398" class="fig-22-text-sm">         84,109,115</text>
  <text x="440" y="430" class="fig-22-text-sm">Parameters:</text>
  <text x="440" y="448" class="fig-22-text-xs">  Q_heads=64  KV_heads=2  head_dim=128</text>
  <text x="440" y="464" class="fig-22-text-xs">  GQA ratio=32:1  No RoPE</text>
  <text x="440" y="486" class="fig-22-text-sm">Pattern: ~every 4-5 mamba layers</text>

  <rect x="780" y="330" width="360" height="170" rx="0" ry="0" stroke="#4a7ab0" stroke-width="1.5" fill="#4a7ab0" fill-opacity="0.04"/>
  <text x="960" y="355" text-anchor="middle" class="fig-22-text-hl">LatentMoE FFN (48 layers)</text>
  <text x="800" y="380" class="fig-22-text-sm">Interleaved after every Mamba/Attn</text>
  <text x="800" y="400" class="fig-22-text-sm">mixture (except positions without moe)</text>
  <text x="800" y="430" class="fig-22-text-sm">512 routed + 1 shared expert</text>
  <text x="800" y="448" class="fig-22-text-sm">Top-22 of 512 experts per token</text>
  <text x="800" y="466" class="fig-22-text-sm">Latent dim = 2048 (compression 4&#215;)</text>
  <text x="800" y="484" class="fig-22-text-sm">expert_intermediate = 5120</text>

  <!-- Micro detail of one hybrid block -->
  <text x="60" y="545" class="fig-22-text-hl">Micro Detail: Single Hybrid Block</text>
  <rect x="60" y="558" width="520" height="110" rx="0" ry="0" stroke="#1a3a6e" stroke-width="1" fill="#1a3a6e" fill-opacity="0.03"/>

  <!-- Input arrow -->
  <text x="130" y="580" text-anchor="middle" class="fig-22-text-xs">Residual Stream</text>
  <line x1="130" y1="588" x2="130" y2="600" stroke="#1a3a6e" stroke-width="1"/>

  <!-- RMSNorm -->
  <rect x="80" y="600" width="100" height="24" stroke="#1a3a6e" stroke-width="1.5" fill="#1a3a6e" fill-opacity="0.08"/>
  <text x="130" y="616" text-anchor="middle" font-family="Courier New, monospace" font-size="9" fill="#1a3a6e">RMSNorm</text>

  <!-- Arrow -->
  <line x1="180" y1="612" x2="210" y2="612" stroke="#1a3a6e" stroke-width="1"/>

  <!-- Mixer box -->
  <rect x="210" y="596" width="140" height="32" stroke="#1a3a6e" stroke-width="1.5" fill="#1a3a6e" fill-opacity="0.08"/>
  <text x="280" y="612" text-anchor="middle" font-family="Courier New, monospace" font-size="10" fill="#1a3a6e">Mixer (48/60)</text>
  <text x="280" y="624" text-anchor="middle" font-family="Courier New, monospace" font-size="8" fill="#888">Mamba-2 or Attention</text>

  <!-- Arrow -->
  <line x1="350" y1="612" x2="380" y2="612" stroke="#1a3a6e" stroke-width="1"/>

  <!-- RMSNorm 2 -->
  <rect x="380" y="600" width="100" height="24" stroke="#1a3a6e" stroke-width="1.5" fill="#1a3a6e" fill-opacity="0.08"/>
  <text x="430" y="616" text-anchor="middle" font-family="Courier New, monospace" font-size="9" fill="#1a3a6e">RMSNorm</text>

  <!-- Arrow -->
  <line x1="480" y1="612" x2="510" y2="612" stroke="#1a3a6e" stroke-width="1"/>

  <!-- MoE box -->
  <rect x="510" y="596" width="55" height="32" stroke="#4a7ab0" stroke-width="1.5" fill="#4a7ab0" fill-opacity="0.08"/>
  <text x="537" y="612" text-anchor="middle" font-family="Courier New, monospace" font-size="9" fill="#4a7ab0">MoE</text>
  <text x="537" y="624" text-anchor="middle" font-family="Courier New, monospace" font-size="7" fill="#888">48/60</text>

  <!-- Residual connection (top) -->
  <line x1="130" y1="596" x2="130" y2="590" stroke="#888" stroke-width="0.8"/>
  <line x1="130" y1="590" x2="537" y2="590" stroke="#888" stroke-width="0.8"/>
  <line x1="537" y1="590" x2="537" y2="596" stroke="#888" stroke-width="0.8"/>

  <!-- ===== LEGEND ===== -->
  <rect x="30" y="700" width="320" height="105" class="fig-22-legend-box"/>
  <text x="45" y="720" font-family="Courier New, monospace" font-size="12" font-weight="bold" fill="#000">Legend</text>

  <rect x="45" y="732" width="20" height="12" class="fig-22-box-mamba"/>
  <text x="75" y="743" class="fig-22-text-xs">Mamba-2 mixer layer (48 total)</text>

  <rect x="45" y="752" width="20" height="12" class="fig-22-box-attn"/>
  <text x="75" y="763" class="fig-22-text-xs">Attention mixer layer (12 total)</text>

  <rect x="45" y="772" width="20" height="12" class="fig-22-box-moe"/>
  <text x="75" y="783" class="fig-22-text-xs">LatentMoE FFN (48 total, interleaved)</text>

  <rect x="235" y="732" width="20" height="12" stroke="#888" stroke-width="0.8" fill="none"/>
  <text x="265" y="743" class="fig-22-text-xs">Residual skip connection</text>

  <rect x="235" y="772" width="20" height="12" stroke="#1a3a6e" stroke-width="1" fill="#1a3a6e" fill-opacity="0.08"/>
  <text x="265" y="783" class="fig-22-text-xs">Component within each block</text>
</svg>
